<svg xmlns="http://www.w3.org/2000/svg" xmlns:xlink="http://www.w3.org/1999/xlink" width="500" zoomAndPan="magnify" viewBox="0 0 375 374.999991" height="500" preserveAspectRatio="xMidYMid meet" version="1.0"><path fill="#e97908" d="M 245.625 41.152344 C 237.375 45.1875 229.523438 49.425781 228.175781 50.570312 C 224.132812 54.007812 218.160156 64.890625 188.421875 123 C 183.460938 132.695312 179.164062 141.417969 178.875 142.386719 C 177.277344 147.761719 201.53125 161.640625 215.402344 163.28125 C 218.417969 163.640625 219.242188 163.46875 220.148438 162.292969 C 222.550781 159.1875 247.355469 112.765625 258.382812 90.75 L 264.957031 77.625 L 264.488281 57.75 C 263.976562 36.125 263.710938 33.734375 261.851562 33.785156 C 261.175781 33.800781 253.875 37.117188 245.625 41.152344 M 159.335938 38.246094 C 132.722656 42.542969 106.953125 53.613281 86.25 69.648438 C 53.167969 95.265625 31.25 132.78125 25.15625 174.214844 C 23.558594 185.054688 23.558594 208.664062 25.148438 219.535156 C 32.9375 272.707031 66.089844 318.316406 113.625 341.253906 C 136.96875 352.519531 157.777344 357.28125 183.75 357.300781 C 204.339844 357.316406 218.730469 354.929688 237.808594 348.339844 C 253.707031 342.847656 273.601562 331.609375 286.414062 320.882812 L 291.199219 316.875 L 320.539062 331.511719 C 344.078125 343.253906 366.839844 354.007812 374.078125 356.804688 C 374.835938 357.097656 374.992188 354.1875 374.828125 342.796875 L 374.625 328.417969 L 367.125 325.390625 C 358.855469 322.054688 329.898438 309.121094 316.695312 302.867188 L 308.265625 298.875 L 310.957031 295.5 C 316.226562 288.894531 323.207031 277.742188 327.625 268.875 C 339.253906 245.539062 344.25 223.855469 344.25 196.757812 C 344.25 170.566406 339.457031 149.601562 328.164062 126.375 C 317.195312 103.820312 300.289062 83.363281 280.171875 68.304688 C 269.527344 60.339844 270.136719 60.375 270.09375 67.695312 C 270.054688 74.449219 268.832031 80.011719 265.964844 86.496094 L 264.105469 90.703125 L 269.925781 95.519531 C 301.910156 121.980469 320.066406 165.613281 316.503906 207.457031 C 314.183594 234.695312 304.351562 259.535156 287.570312 280.566406 C 285.339844 283.363281 283.167969 285.867188 282.742188 286.128906 C 282.320312 286.390625 277.28125 284.710938 271.550781 282.394531 C 254.441406 275.484375 233.941406 270.070312 219 268.515625 C 208.507812 267.425781 186.964844 267.59375 176.246094 268.847656 C 160.453125 270.695312 147.253906 274.726562 132.105469 282.320312 C 123.441406 286.667969 122.605469 286.996094 123.375 285.75 C 123.628906 285.335938 123.519531 285 123.132812 285 C 122.742188 285 122.261719 285.84375 122.066406 286.875 C 121.867188 287.90625 121.792969 288.75 121.894531 288.75 C 121.996094 288.75 127.601562 287.421875 134.351562 285.800781 C 152.167969 281.519531 156.902344 280.925781 172.875 280.960938 C 197.636719 281.019531 219.867188 285.871094 250.125 297.816406 C 261.570312 302.335938 263.859375 303.414062 263.226562 303.992188 C 263.035156 304.171875 260.527344 305.878906 257.660156 307.792969 C 219.269531 333.382812 169.101562 337.023438 127.625 317.230469 C 111.738281 309.648438 100.984375 301.898438 88.472656 289.015625 C 41.320312 240.449219 38.640625 163.960938 82.261719 111.59375 C 95.714844 95.441406 114.265625 81.992188 134.25 73.902344 C 143.410156 70.191406 147.90625 68.824219 158.015625 66.664062 C 170.363281 64.023438 199.285156 63.890625 209.597656 66.425781 C 210.894531 66.746094 211.566406 65.859375 214.027344 60.589844 C 216.363281 55.589844 218.078125 53.242188 222.800781 48.578125 L 228.667969 42.785156 L 224.769531 41.605469 C 222.628906 40.957031 216.039062 39.601562 210.128906 38.589844 C 200.871094 37.003906 197.175781 36.761719 183.503906 36.828125 C 172.195312 36.886719 165.238281 37.292969 159.335938 38.246094 M 167.265625 165.046875 C 159.203125 180.164062 152.371094 193.742188 150.753906 197.863281 C 149.472656 201.125 150.164062 201.757812 157.875 204.378906 C 164.933594 206.78125 170.550781 209.527344 176.25 213.371094 C 183.457031 218.230469 184.398438 218.574219 186.148438 216.992188 C 189.410156 214.039062 214.5 174.570312 214.5 172.390625 C 214.5 171.644531 211.769531 170.511719 205.839844 168.804688 C 193.933594 165.371094 188.007812 162.347656 180.894531 156.082031 L 174.871094 150.777344 Z M 145.347656 212.539062 C 145.574219 216.851562 145.363281 219.769531 144.707031 221.351562 C 144.167969 222.652344 140.703125 227.972656 137.007812 233.171875 C 133.308594 238.371094 129.683594 243.804688 128.953125 245.25 C 128.167969 246.792969 127.261719 251.277344 126.757812 256.125 C 125.8125 265.214844 124.347656 272.953125 122.53125 278.484375 C 121.878906 280.472656 121.488281 282.238281 121.660156 282.410156 C 122.070312 282.820312 133.570312 262.675781 136.144531 257.046875 C 137.667969 253.714844 138.015625 252.0625 137.648438 249.886719 C 136.800781 244.867188 141 241.609375 145.898438 243.488281 C 146.597656 243.753906 147.597656 244.996094 148.121094 246.246094 C 149.417969 249.332031 148.355469 252.082031 145.214844 253.773438 C 143.839844 254.511719 141.53125 256.695312 140.078125 258.621094 C 137.070312 262.609375 123.695312 283.5 124.148438 283.5 C 124.308594 283.5 126.554688 281.617188 129.128906 279.316406 C 133.4375 275.472656 140.332031 270.652344 149.492188 265.078125 C 152.890625 263.007812 153.515625 262.078125 159.855469 249.75 C 169.058594 231.859375 170.296875 230.039062 175.175781 227.285156 C 177.417969 226.023438 179.25 224.519531 179.25 223.945312 C 179.25 221.84375 173.410156 217.886719 162.28125 212.449219 C 156.007812 209.382812 149.554688 206.695312 147.941406 206.480469 L 145.011719 206.085938 Z M 145.347656 212.539062 " fill-opacity="1" fill-rule="evenodd"/></svg>